{
  "asset": {
    "generator": "Khronos glTF Blender I/O v3.4.50",
    "version": "2.0"
  },
  "extensionsUsed": ["KHR_materials_specular", "KHR_materials_ior"],
  "scene": 0,
  "scenes": [
    {
      "name": "Scene",
      "nodes": [4]
    }
  ],
  "nodes": [
    {
      "name": "record",
      "translation": [
        -0.04999985545873642, 0.3999999761581421, 0.0499999038875103
      ]
    },
    {
      "children": [0],
      "name": "player"
    },
    {
      "mesh": 0,
      "name": "player",
      "skin": 0
    },
    {
      "mesh": 1,
      "name": "record",
      "skin": 0
    },
    {
      "children": [2, 3, 1],
      "name": "Armature"
    }
  ],
  "animations": [
    {
      "channels": [
        {
          "sampler": 0,
          "target": {
            "node": 1,
            "path": "translation"
          }
        },
        {
          "sampler": 1,
          "target": {
            "node": 1,
            "path": "rotation"
          }
        },
        {
          "sampler": 2,
          "target": {
            "node": 1,
            "path": "scale"
          }
        },
        {
          "sampler": 3,
          "target": {
            "node": 0,
            "path": "translation"
          }
        },
        {
          "sampler": 4,
          "target": {
            "node": 0,
            "path": "rotation"
          }
        },
        {
          "sampler": 5,
          "target": {
            "node": 0,
            "path": "scale"
          }
        }
      ],
      "name": "Play",
      "samplers": [
        {
          "input": 13,
          "interpolation": "LINEAR",
          "output": 14
        },
        {
          "input": 13,
          "interpolation": "LINEAR",
          "output": 15
        },
        {
          "input": 13,
          "interpolation": "LINEAR",
          "output": 16
        },
        {
          "input": 13,
          "interpolation": "LINEAR",
          "output": 17
        },
        {
          "input": 13,
          "interpolation": "LINEAR",
          "output": 18
        },
        {
          "input": 13,
          "interpolation": "LINEAR",
          "output": 19
        }
      ]
    },
    {
      "channels": [
        {
          "sampler": 0,
          "target": {
            "node": 1,
            "path": "translation"
          }
        },
        {
          "sampler": 1,
          "target": {
            "node": 1,
            "path": "rotation"
          }
        },
        {
          "sampler": 2,
          "target": {
            "node": 1,
            "path": "scale"
          }
        },
        {
          "sampler": 3,
          "target": {
            "node": 0,
            "path": "translation"
          }
        },
        {
          "sampler": 4,
          "target": {
            "node": 0,
            "path": "rotation"
          }
        },
        {
          "sampler": 5,
          "target": {
            "node": 0,
            "path": "scale"
          }
        }
      ],
      "name": "TPose",
      "samplers": [
        {
          "input": 20,
          "interpolation": "LINEAR",
          "output": 21
        },
        {
          "input": 20,
          "interpolation": "LINEAR",
          "output": 22
        },
        {
          "input": 20,
          "interpolation": "LINEAR",
          "output": 23
        },
        {
          "input": 20,
          "interpolation": "LINEAR",
          "output": 24
        },
        {
          "input": 20,
          "interpolation": "LINEAR",
          "output": 25
        },
        {
          "input": 20,
          "interpolation": "LINEAR",
          "output": 26
        }
      ]
    }
  ],
  "materials": [
    {
      "doubleSided": true,
      "extensions": {
        "KHR_materials_specular": {
          "specularColorFactor": [0, 0, 0]
        },
        "KHR_materials_ior": {
          "ior": 1.4500000476837158
        }
      },
      "name": "palette.001",
      "pbrMetallicRoughness": {
        "baseColorTexture": {
          "index": 0
        },
        "metallicFactor": 0
      }
    },
    {
      "doubleSided": true,
      "extensions": {
        "KHR_materials_specular": {
          "specularColorFactor": [0, 0, 0]
        },
        "KHR_materials_ior": {
          "ior": 1.4500000476837158
        }
      },
      "name": "palette",
      "pbrMetallicRoughness": {
        "baseColorTexture": {
          "index": 1
        },
        "metallicFactor": 0
      }
    }
  ],
  "meshes": [
    {
      "name": "Untitled.001",
      "primitives": [
        {
          "attributes": {
            "POSITION": 0,
            "TEXCOORD_0": 1,
            "NORMAL": 2,
            "JOINTS_0": 3,
            "WEIGHTS_0": 4
          },
          "indices": 5,
          "material": 0
        }
      ]
    },
    {
      "name": "Untitled",
      "primitives": [
        {
          "attributes": {
            "POSITION": 7,
            "TEXCOORD_0": 8,
            "NORMAL": 9,
            "JOINTS_0": 10,
            "WEIGHTS_0": 11
          },
          "indices": 12,
          "material": 1
        }
      ]
    }
  ],
  "textures": [
    {
      "sampler": 0,
      "source": 0
    },
    {
      "sampler": 0,
      "source": 1
    }
  ],
  "images": [
    {
      "bufferView": 6,
      "mimeType": "image/png",
      "name": "record_player-0"
    },
    {
      "bufferView": 14,
      "mimeType": "image/png",
      "name": "record_disk-0"
    }
  ],
  "skins": [
    {
      "inverseBindMatrices": 6,
      "joints": [1, 0],
      "name": "Armature"
    }
  ],
  "accessors": [
    {
      "bufferView": 0,
      "componentType": 5126,
      "count": 567,
      "max": [0.800000011920929, 0.7000001072883606, 0.800000011920929],
      "min": [-0.800000011920929, -1.4384680468992883e-7, -0.800000011920929],
      "type": "VEC3"
    },
    {
      "bufferView": 1,
      "componentType": 5126,
      "count": 567,
      "type": "VEC2"
    },
    {
      "bufferView": 2,
      "componentType": 5126,
      "count": 567,
      "type": "VEC3"
    },
    {
      "bufferView": 3,
      "componentType": 5121,
      "count": 567,
      "type": "VEC4"
    },
    {
      "bufferView": 4,
      "componentType": 5126,
      "count": 567,
      "type": "VEC4"
    },
    {
      "bufferView": 5,
      "componentType": 5123,
      "count": 930,
      "type": "SCALAR"
    },
    {
      "bufferView": 7,
      "componentType": 5126,
      "count": 2,
      "type": "MAT4"
    },
    {
      "bufferView": 8,
      "componentType": 5126,
      "count": 582,
      "max": [0.6000000238418579, 0.5000001192092896, 0.7000000476837158],
      "min": [-0.699999988079071, 0.3999998867511749, -0.5999999642372131],
      "type": "VEC3"
    },
    {
      "bufferView": 9,
      "componentType": 5126,
      "count": 582,
      "type": "VEC2"
    },
    {
      "bufferView": 10,
      "componentType": 5126,
      "count": 582,
      "type": "VEC3"
    },
    {
      "bufferView": 11,
      "componentType": 5121,
      "count": 582,
      "type": "VEC4"
    },
    {
      "bufferView": 12,
      "componentType": 5126,
      "count": 582,
      "type": "VEC4"
    },
    {
      "bufferView": 13,
      "componentType": 5123,
      "count": 1008,
      "type": "SCALAR"
    },
    {
      "bufferView": 15,
      "componentType": 5126,
      "count": 49,
      "max": [2],
      "min": [0],
      "type": "SCALAR"
    },
    {
      "bufferView": 16,
      "componentType": 5126,
      "count": 49,
      "type": "VEC3"
    },
    {
      "bufferView": 17,
      "componentType": 5126,
      "count": 49,
      "type": "VEC4"
    },
    {
      "bufferView": 18,
      "componentType": 5126,
      "count": 49,
      "type": "VEC3"
    },
    {
      "bufferView": 19,
      "componentType": 5126,
      "count": 49,
      "type": "VEC3"
    },
    {
      "bufferView": 20,
      "componentType": 5126,
      "count": 49,
      "type": "VEC4"
    },
    {
      "bufferView": 21,
      "componentType": 5126,
      "count": 49,
      "type": "VEC3"
    },
    {
      "bufferView": 22,
      "componentType": 5126,
      "count": 25,
      "max": [1],
      "min": [0],
      "type": "SCALAR"
    },
    {
      "bufferView": 23,
      "componentType": 5126,
      "count": 25,
      "type": "VEC3"
    },
    {
      "bufferView": 24,
      "componentType": 5126,
      "count": 25,
      "type": "VEC4"
    },
    {
      "bufferView": 25,
      "componentType": 5126,
      "count": 25,
      "type": "VEC3"
    },
    {
      "bufferView": 26,
      "componentType": 5126,
      "count": 25,
      "type": "VEC3"
    },
    {
      "bufferView": 27,
      "componentType": 5126,
      "count": 25,
      "type": "VEC4"
    },
    {
      "bufferView": 28,
      "componentType": 5126,
      "count": 25,
      "type": "VEC3"
    }
  ],
  "bufferViews": [
    {
      "buffer": 0,
      "byteLength": 6804,
      "byteOffset": 0,
      "target": 34962
    },
    {
      "buffer": 0,
      "byteLength": 4536,
      "byteOffset": 6804,
      "target": 34962
    },
    {
      "buffer": 0,
      "byteLength": 6804,
      "byteOffset": 11340,
      "target": 34962
    },
    {
      "buffer": 0,
      "byteLength": 2268,
      "byteOffset": 18144,
      "target": 34962
    },
    {
      "buffer": 0,
      "byteLength": 9072,
      "byteOffset": 20412,
      "target": 34962
    },
    {
      "buffer": 0,
      "byteLength": 1860,
      "byteOffset": 29484,
      "target": 34963
    },
    {
      "buffer": 0,
      "byteLength": 944,
      "byteOffset": 31344
    },
    {
      "buffer": 0,
      "byteLength": 128,
      "byteOffset": 32288
    },
    {
      "buffer": 0,
      "byteLength": 6984,
      "byteOffset": 32416,
      "target": 34962
    },
    {
      "buffer": 0,
      "byteLength": 4656,
      "byteOffset": 39400,
      "target": 34962
    },
    {
      "buffer": 0,
      "byteLength": 6984,
      "byteOffset": 44056,
      "target": 34962
    },
    {
      "buffer": 0,
      "byteLength": 2328,
      "byteOffset": 51040,
      "target": 34962
    },
    {
      "buffer": 0,
      "byteLength": 9312,
      "byteOffset": 53368,
      "target": 34962
    },
    {
      "buffer": 0,
      "byteLength": 2016,
      "byteOffset": 62680,
      "target": 34963
    },
    {
      "buffer": 0,
      "byteLength": 944,
      "byteOffset": 64696
    },
    {
      "buffer": 0,
      "byteLength": 196,
      "byteOffset": 65640
    },
    {
      "buffer": 0,
      "byteLength": 588,
      "byteOffset": 65836
    },
    {
      "buffer": 0,
      "byteLength": 784,
      "byteOffset": 66424
    },
    {
      "buffer": 0,
      "byteLength": 588,
      "byteOffset": 67208
    },
    {
      "buffer": 0,
      "byteLength": 588,
      "byteOffset": 67796
    },
    {
      "buffer": 0,
      "byteLength": 784,
      "byteOffset": 68384
    },
    {
      "buffer": 0,
      "byteLength": 588,
      "byteOffset": 69168
    },
    {
      "buffer": 0,
      "byteLength": 100,
      "byteOffset": 69756
    },
    {
      "buffer": 0,
      "byteLength": 300,
      "byteOffset": 69856
    },
    {
      "buffer": 0,
      "byteLength": 400,
      "byteOffset": 70156
    },
    {
      "buffer": 0,
      "byteLength": 300,
      "byteOffset": 70556
    },
    {
      "buffer": 0,
      "byteLength": 300,
      "byteOffset": 70856
    },
    {
      "buffer": 0,
      "byteLength": 400,
      "byteOffset": 71156
    },
    {
      "buffer": 0,
      "byteLength": 300,
      "byteOffset": 71556
    }
  ],
  "samplers": [
    {
      "magFilter": 9729,
      "minFilter": 9987
    }
  ],
  "buffers": [
    {
      "byteLength": 71856,
      "uri": "data:application/octet-stream;base64,"
    }
  ]
}
