{
    "asset" : {
        "generator" : "Khronos glTF Blender I/O v1.4.40",
        "version" : "2.0"
    },
    "scene" : 0,
    "scenes" : [
        {
            "name" : "Scene",
            "nodes" : [
                0,
                1,
                6
            ]
        }
    ],
    "nodes" : [
        {
            "name" : "Light",
            "rotation" : [
                0.16907575726509094,
                0.7558803558349609,
                -0.27217137813568115,
                0.570947527885437
            ],
            "translation" : [
                4.076245307922363,
                5.903861999511719,
                -1.0054539442062378
            ]
        },
        {
            "name" : "Camera",
            "rotation" : [
                0.483536034822464,
                0.33687159419059753,
                -0.20870360732078552,
                0.7804827094078064
            ],
            "translation" : [
                7.358891487121582,
                4.958309173583984,
                6.925790786743164
            ]
        },
        {
            "name" : "Cap",
            "rotation" : [
                0.7071068286895752,
                0.7071068286895752,
                -1.6788588652616454e-07,
                2.2197249904820637e-07
            ],
            "translation" : [
                3.197442310920451e-14,
                0.8000000715255737,
                3.849580515604767e-16
            ]
        },
        {
            "children" : [
                2
            ],
            "name" : "Box",
            "rotation" : [
                3.725289943190546e-08,
                1,
                3.6958588587546887e-17,
                -3.824500183213786e-08
            ],
            "translation" : [
                -0.1000000461935997,
                -1.1999996900558472,
                0
            ]
        },
        {
            "mesh" : 0,
            "name" : "Box",
            "skin" : 0
        },
        {
            "mesh" : 1,
            "name" : "Cap",
            "skin" : 0
        },
        {
            "children" : [
                4,
                5,
                3
            ],
            "name" : "Armature",
            "translation" : [
                0.800000011920929,
                1.2000000476837158,
                0
            ]
        }
    ],
    "animations" : [
        {
            "channels" : [
                {
                    "sampler" : 0,
                    "target" : {
                        "node" : 3,
                        "path" : "translation"
                    }
                },
                {
                    "sampler" : 1,
                    "target" : {
                        "node" : 3,
                        "path" : "rotation"
                    }
                },
                {
                    "sampler" : 2,
                    "target" : {
                        "node" : 3,
                        "path" : "scale"
                    }
                },
                {
                    "sampler" : 3,
                    "target" : {
                        "node" : 2,
                        "path" : "translation"
                    }
                },
                {
                    "sampler" : 4,
                    "target" : {
                        "node" : 2,
                        "path" : "rotation"
                    }
                },
                {
                    "sampler" : 5,
                    "target" : {
                        "node" : 2,
                        "path" : "scale"
                    }
                }
            ],
            "name" : "Close",
            "samplers" : [
                {
                    "input" : 13,
                    "interpolation" : "LINEAR",
                    "output" : 14
                },
                {
                    "input" : 13,
                    "interpolation" : "LINEAR",
                    "output" : 15
                },
                {
                    "input" : 13,
                    "interpolation" : "LINEAR",
                    "output" : 16
                },
                {
                    "input" : 13,
                    "interpolation" : "LINEAR",
                    "output" : 17
                },
                {
                    "input" : 13,
                    "interpolation" : "LINEAR",
                    "output" : 18
                },
                {
                    "input" : 13,
                    "interpolation" : "LINEAR",
                    "output" : 19
                }
            ]
        },
        {
            "channels" : [
                {
                    "sampler" : 0,
                    "target" : {
                        "node" : 3,
                        "path" : "translation"
                    }
                },
                {
                    "sampler" : 1,
                    "target" : {
                        "node" : 3,
                        "path" : "rotation"
                    }
                },
                {
                    "sampler" : 2,
                    "target" : {
                        "node" : 3,
                        "path" : "scale"
                    }
                },
                {
                    "sampler" : 3,
                    "target" : {
                        "node" : 2,
                        "path" : "translation"
                    }
                },
                {
                    "sampler" : 4,
                    "target" : {
                        "node" : 2,
                        "path" : "rotation"
                    }
                },
                {
                    "sampler" : 5,
                    "target" : {
                        "node" : 2,
                        "path" : "scale"
                    }
                }
            ],
            "name" : "Open",
            "samplers" : [
                {
                    "input" : 13,
                    "interpolation" : "LINEAR",
                    "output" : 20
                },
                {
                    "input" : 13,
                    "interpolation" : "LINEAR",
                    "output" : 21
                },
                {
                    "input" : 13,
                    "interpolation" : "LINEAR",
                    "output" : 22
                },
                {
                    "input" : 13,
                    "interpolation" : "LINEAR",
                    "output" : 23
                },
                {
                    "input" : 13,
                    "interpolation" : "LINEAR",
                    "output" : 24
                },
                {
                    "input" : 13,
                    "interpolation" : "LINEAR",
                    "output" : 25
                }
            ]
        },
        {
            "channels" : [
                {
                    "sampler" : 0,
                    "target" : {
                        "node" : 3,
                        "path" : "translation"
                    }
                },
                {
                    "sampler" : 1,
                    "target" : {
                        "node" : 3,
                        "path" : "rotation"
                    }
                },
                {
                    "sampler" : 2,
                    "target" : {
                        "node" : 3,
                        "path" : "scale"
                    }
                },
                {
                    "sampler" : 3,
                    "target" : {
                        "node" : 2,
                        "path" : "translation"
                    }
                },
                {
                    "sampler" : 4,
                    "target" : {
                        "node" : 2,
                        "path" : "rotation"
                    }
                },
                {
                    "sampler" : 5,
                    "target" : {
                        "node" : 2,
                        "path" : "scale"
                    }
                }
            ],
            "name" : "TPose",
            "samplers" : [
                {
                    "input" : 26,
                    "interpolation" : "LINEAR",
                    "output" : 27
                },
                {
                    "input" : 26,
                    "interpolation" : "LINEAR",
                    "output" : 28
                },
                {
                    "input" : 26,
                    "interpolation" : "LINEAR",
                    "output" : 29
                },
                {
                    "input" : 26,
                    "interpolation" : "LINEAR",
                    "output" : 30
                },
                {
                    "input" : 26,
                    "interpolation" : "LINEAR",
                    "output" : 31
                },
                {
                    "input" : 26,
                    "interpolation" : "LINEAR",
                    "output" : 32
                }
            ]
        }
    ],
    "materials" : [
        {
            "doubleSided" : true,
            "name" : "palette.003",
            "pbrMetallicRoughness" : {
                "baseColorTexture" : {
                    "index" : 0,
                    "texCoord" : 0
                },
                "metallicFactor" : 0
            }
        },
        {
            "doubleSided" : true,
            "name" : "palette.001",
            "pbrMetallicRoughness" : {
                "baseColorTexture" : {
                    "index" : 1,
                    "texCoord" : 0
                },
                "metallicFactor" : 0
            }
        }
    ],
    "meshes" : [
        {
            "name" : "ObjObject.003",
            "primitives" : [
                {
                    "attributes" : {
                        "POSITION" : 0,
                        "NORMAL" : 1,
                        "TEXCOORD_0" : 2,
                        "JOINTS_0" : 3,
                        "WEIGHTS_0" : 4
                    },
                    "indices" : 5,
                    "material" : 0
                }
            ]
        },
        {
            "name" : "ObjObject.001",
            "primitives" : [
                {
                    "attributes" : {
                        "POSITION" : 7,
                        "NORMAL" : 8,
                        "TEXCOORD_0" : 9,
                        "JOINTS_0" : 10,
                        "WEIGHTS_0" : 11
                    },
                    "indices" : 12,
                    "material" : 1
                }
            ]
        }
    ],
    "textures" : [
        {
            "sampler" : 0,
            "source" : 0
        },
        {
            "sampler" : 0,
            "source" : 1
        }
    ],
    "images" : [
        {
            "bufferView" : 6,
            "mimeType" : "image/png",
            "name" : "treasure_box_box-0"
        },
        {
            "bufferView" : 14,
            "mimeType" : "image/png",
            "name" : "treasure_box_cap-0"
        }
    ],
    "skins" : [
        {
            "inverseBindMatrices" : 6,
            "joints" : [
                3,
                2
            ],
            "name" : "Armature"
        }
    ],
    "accessors" : [
        {
            "bufferView" : 0,
            "componentType" : 5126,
            "count" : 428,
            "max" : [
                0.7000001072883606,
                0.8000001311302185,
                0.8000001311302185
            ],
            "min" : [
                -0.7000001072883606,
                -1.3033654511218629e-07,
                -0.8000002503395081
            ],
            "type" : "VEC3"
        },
        {
            "bufferView" : 1,
            "componentType" : 5126,
            "count" : 428,
            "type" : "VEC3"
        },
        {
            "bufferView" : 2,
            "componentType" : 5126,
            "count" : 428,
            "type" : "VEC2"
        },
        {
            "bufferView" : 3,
            "componentType" : 5121,
            "count" : 428,
            "type" : "VEC4"
        },
        {
            "bufferView" : 4,
            "componentType" : 5126,
            "count" : 428,
            "type" : "VEC4"
        },
        {
            "bufferView" : 5,
            "componentType" : 5123,
            "count" : 792,
            "type" : "SCALAR"
        },
        {
            "bufferView" : 7,
            "componentType" : 5126,
            "count" : 2,
            "type" : "MAT4"
        },
        {
            "bufferView" : 8,
            "componentType" : 5126,
            "count" : 1072,
            "max" : [
                0.7000001072883606,
                1.500000238418579,
                0.800000011920929
            ],
            "min" : [
                -0.7000001072883606,
                0.5,
                -0.8000003099441528
            ],
            "type" : "VEC3"
        },
        {
            "bufferView" : 9,
            "componentType" : 5126,
            "count" : 1072,
            "type" : "VEC3"
        },
        {
            "bufferView" : 10,
            "componentType" : 5126,
            "count" : 1072,
            "type" : "VEC2"
        },
        {
            "bufferView" : 11,
            "componentType" : 5121,
            "count" : 1072,
            "type" : "VEC4"
        },
        {
            "bufferView" : 12,
            "componentType" : 5126,
            "count" : 1072,
            "type" : "VEC4"
        },
        {
            "bufferView" : 13,
            "componentType" : 5123,
            "count" : 1908,
            "type" : "SCALAR"
        },
        {
            "bufferView" : 15,
            "componentType" : 5126,
            "count" : 17,
            "max" : [
                0.6666666666666666
            ],
            "min" : [
                0
            ],
            "type" : "SCALAR"
        },
        {
            "bufferView" : 16,
            "componentType" : 5126,
            "count" : 17,
            "type" : "VEC3"
        },
        {
            "bufferView" : 17,
            "componentType" : 5126,
            "count" : 17,
            "type" : "VEC4"
        },
        {
            "bufferView" : 18,
            "componentType" : 5126,
            "count" : 17,
            "type" : "VEC3"
        },
        {
            "bufferView" : 19,
            "componentType" : 5126,
            "count" : 17,
            "type" : "VEC3"
        },
        {
            "bufferView" : 20,
            "componentType" : 5126,
            "count" : 17,
            "type" : "VEC4"
        },
        {
            "bufferView" : 21,
            "componentType" : 5126,
            "count" : 17,
            "type" : "VEC3"
        },
        {
            "bufferView" : 22,
            "componentType" : 5126,
            "count" : 17,
            "type" : "VEC3"
        },
        {
            "bufferView" : 23,
            "componentType" : 5126,
            "count" : 17,
            "type" : "VEC4"
        },
        {
            "bufferView" : 24,
            "componentType" : 5126,
            "count" : 17,
            "type" : "VEC3"
        },
        {
            "bufferView" : 25,
            "componentType" : 5126,
            "count" : 17,
            "type" : "VEC3"
        },
        {
            "bufferView" : 26,
            "componentType" : 5126,
            "count" : 17,
            "type" : "VEC4"
        },
        {
            "bufferView" : 27,
            "componentType" : 5126,
            "count" : 17,
            "type" : "VEC3"
        },
        {
            "bufferView" : 28,
            "componentType" : 5126,
            "count" : 25,
            "max" : [
                1
            ],
            "min" : [
                0
            ],
            "type" : "SCALAR"
        },
        {
            "bufferView" : 29,
            "componentType" : 5126,
            "count" : 25,
            "type" : "VEC3"
        },
        {
            "bufferView" : 30,
            "componentType" : 5126,
            "count" : 25,
            "type" : "VEC4"
        },
        {
            "bufferView" : 31,
            "componentType" : 5126,
            "count" : 25,
            "type" : "VEC3"
        },
        {
            "bufferView" : 32,
            "componentType" : 5126,
            "count" : 25,
            "type" : "VEC3"
        },
        {
            "bufferView" : 33,
            "componentType" : 5126,
            "count" : 25,
            "type" : "VEC4"
        },
        {
            "bufferView" : 34,
            "componentType" : 5126,
            "count" : 25,
            "type" : "VEC3"
        }
    ],
    "bufferViews" : [
        {
            "buffer" : 0,
            "byteLength" : 5136,
            "byteOffset" : 0
        },
        {
            "buffer" : 0,
            "byteLength" : 5136,
            "byteOffset" : 5136
        },
        {
            "buffer" : 0,
            "byteLength" : 3424,
            "byteOffset" : 10272
        },
        {
            "buffer" : 0,
            "byteLength" : 1712,
            "byteOffset" : 13696
        },
        {
            "buffer" : 0,
            "byteLength" : 6848,
            "byteOffset" : 15408
        },
        {
            "buffer" : 0,
            "byteLength" : 1584,
            "byteOffset" : 22256
        },
        {
            "buffer" : 0,
            "byteLength" : 945,
            "byteOffset" : 23840
        },
        {
            "buffer" : 0,
            "byteLength" : 128,
            "byteOffset" : 24788
        },
        {
            "buffer" : 0,
            "byteLength" : 12864,
            "byteOffset" : 24916
        },
        {
            "buffer" : 0,
            "byteLength" : 12864,
            "byteOffset" : 37780
        },
        {
            "buffer" : 0,
            "byteLength" : 8576,
            "byteOffset" : 50644
        },
        {
            "buffer" : 0,
            "byteLength" : 4288,
            "byteOffset" : 59220
        },
        {
            "buffer" : 0,
            "byteLength" : 17152,
            "byteOffset" : 63508
        },
        {
            "buffer" : 0,
            "byteLength" : 3816,
            "byteOffset" : 80660
        },
        {
            "buffer" : 0,
            "byteLength" : 945,
            "byteOffset" : 84476
        },
        {
            "buffer" : 0,
            "byteLength" : 68,
            "byteOffset" : 85424
        },
        {
            "buffer" : 0,
            "byteLength" : 204,
            "byteOffset" : 85492
        },
        {
            "buffer" : 0,
            "byteLength" : 272,
            "byteOffset" : 85696
        },
        {
            "buffer" : 0,
            "byteLength" : 204,
            "byteOffset" : 85968
        },
        {
            "buffer" : 0,
            "byteLength" : 204,
            "byteOffset" : 86172
        },
        {
            "buffer" : 0,
            "byteLength" : 272,
            "byteOffset" : 86376
        },
        {
            "buffer" : 0,
            "byteLength" : 204,
            "byteOffset" : 86648
        },
        {
            "buffer" : 0,
            "byteLength" : 204,
            "byteOffset" : 86852
        },
        {
            "buffer" : 0,
            "byteLength" : 272,
            "byteOffset" : 87056
        },
        {
            "buffer" : 0,
            "byteLength" : 204,
            "byteOffset" : 87328
        },
        {
            "buffer" : 0,
            "byteLength" : 204,
            "byteOffset" : 87532
        },
        {
            "buffer" : 0,
            "byteLength" : 272,
            "byteOffset" : 87736
        },
        {
            "buffer" : 0,
            "byteLength" : 204,
            "byteOffset" : 88008
        },
        {
            "buffer" : 0,
            "byteLength" : 100,
            "byteOffset" : 88212
        },
        {
            "buffer" : 0,
            "byteLength" : 300,
            "byteOffset" : 88312
        },
        {
            "buffer" : 0,
            "byteLength" : 400,
            "byteOffset" : 88612
        },
        {
            "buffer" : 0,
            "byteLength" : 300,
            "byteOffset" : 89012
        },
        {
            "buffer" : 0,
            "byteLength" : 300,
            "byteOffset" : 89312
        },
        {
            "buffer" : 0,
            "byteLength" : 400,
            "byteOffset" : 89612
        },
        {
            "buffer" : 0,
            "byteLength" : 300,
            "byteOffset" : 90012
        }
    ],
    "samplers" : [
        {
            "magFilter" : 9729,
            "minFilter" : 9986
        }
    ],
    "buffers" : [
        {
            "byteLength" : 90312,
            "uri" : "data:application/octet-stream;base64,"
        }
    ]
}
