{
    "asset" : {
        "generator" : "Khronos glTF Blender I/O v3.2.43",
        "version" : "2.0"
    },
    "scene" : 0,
    "scenes" : [
        {
            "name" : "Scene",
            "nodes" : [
                4
            ]
        }
    ],
    "nodes" : [
        {
            "name" : "Cap",
            "rotation" : [
                0.7071068286895752,
                0.7071068286895752,
                1.1238230790411308e-08,
                5.338508302088485e-08
            ],
            "translation" : [
                1.7881390590446244e-08,
                0.9999999403953552,
                -7.12931792187831e-15
            ]
        },
        {
            "children" : [
                0
            ],
            "name" : "Box",
            "rotation" : [
                -2.9802322387695312e-08,
                -1,
                -4.73655953665158e-16,
                4.569557887634801e-08
            ],
            "translation" : [
                -5.960464477539063e-08,
                -1.0000001192092896,
                0
            ]
        },
        {
            "mesh" : 0,
            "name" : "Box",
            "skin" : 0
        },
        {
            "mesh" : 1,
            "name" : "Cap",
            "skin" : 0
        },
        {
            "children" : [
                2,
                3,
                1
            ],
            "name" : "Armature",
            "scale" : [
                0.625,
                0.625,
                0.625
            ],
            "translation" : [
                0.5,
                0.8124997615814209,
                0
            ]
        }
    ],
    "animations" : [
        {
            "channels" : [
                {
                    "sampler" : 0,
                    "target" : {
                        "node" : 1,
                        "path" : "translation"
                    }
                },
                {
                    "sampler" : 1,
                    "target" : {
                        "node" : 1,
                        "path" : "rotation"
                    }
                },
                {
                    "sampler" : 2,
                    "target" : {
                        "node" : 1,
                        "path" : "scale"
                    }
                },
                {
                    "sampler" : 3,
                    "target" : {
                        "node" : 0,
                        "path" : "translation"
                    }
                },
                {
                    "sampler" : 4,
                    "target" : {
                        "node" : 0,
                        "path" : "rotation"
                    }
                },
                {
                    "sampler" : 5,
                    "target" : {
                        "node" : 0,
                        "path" : "scale"
                    }
                }
            ],
            "name" : "Close",
            "samplers" : [
                {
                    "input" : 14,
                    "interpolation" : "LINEAR",
                    "output" : 15
                },
                {
                    "input" : 14,
                    "interpolation" : "LINEAR",
                    "output" : 16
                },
                {
                    "input" : 14,
                    "interpolation" : "LINEAR",
                    "output" : 17
                },
                {
                    "input" : 14,
                    "interpolation" : "LINEAR",
                    "output" : 18
                },
                {
                    "input" : 14,
                    "interpolation" : "LINEAR",
                    "output" : 19
                },
                {
                    "input" : 14,
                    "interpolation" : "LINEAR",
                    "output" : 20
                }
            ]
        },
        {
            "channels" : [
                {
                    "sampler" : 0,
                    "target" : {
                        "node" : 1,
                        "path" : "translation"
                    }
                },
                {
                    "sampler" : 1,
                    "target" : {
                        "node" : 1,
                        "path" : "rotation"
                    }
                },
                {
                    "sampler" : 2,
                    "target" : {
                        "node" : 1,
                        "path" : "scale"
                    }
                },
                {
                    "sampler" : 3,
                    "target" : {
                        "node" : 0,
                        "path" : "translation"
                    }
                },
                {
                    "sampler" : 4,
                    "target" : {
                        "node" : 0,
                        "path" : "rotation"
                    }
                },
                {
                    "sampler" : 5,
                    "target" : {
                        "node" : 0,
                        "path" : "scale"
                    }
                }
            ],
            "name" : "Open",
            "samplers" : [
                {
                    "input" : 14,
                    "interpolation" : "LINEAR",
                    "output" : 21
                },
                {
                    "input" : 14,
                    "interpolation" : "LINEAR",
                    "output" : 22
                },
                {
                    "input" : 14,
                    "interpolation" : "LINEAR",
                    "output" : 23
                },
                {
                    "input" : 14,
                    "interpolation" : "LINEAR",
                    "output" : 24
                },
                {
                    "input" : 14,
                    "interpolation" : "LINEAR",
                    "output" : 25
                },
                {
                    "input" : 14,
                    "interpolation" : "LINEAR",
                    "output" : 26
                }
            ]
        },
        {
            "channels" : [
                {
                    "sampler" : 0,
                    "target" : {
                        "node" : 1,
                        "path" : "translation"
                    }
                },
                {
                    "sampler" : 1,
                    "target" : {
                        "node" : 1,
                        "path" : "rotation"
                    }
                },
                {
                    "sampler" : 2,
                    "target" : {
                        "node" : 1,
                        "path" : "scale"
                    }
                },
                {
                    "sampler" : 3,
                    "target" : {
                        "node" : 0,
                        "path" : "translation"
                    }
                },
                {
                    "sampler" : 4,
                    "target" : {
                        "node" : 0,
                        "path" : "rotation"
                    }
                },
                {
                    "sampler" : 5,
                    "target" : {
                        "node" : 0,
                        "path" : "scale"
                    }
                }
            ],
            "name" : "TPose",
            "samplers" : [
                {
                    "input" : 27,
                    "interpolation" : "LINEAR",
                    "output" : 28
                },
                {
                    "input" : 27,
                    "interpolation" : "LINEAR",
                    "output" : 29
                },
                {
                    "input" : 27,
                    "interpolation" : "LINEAR",
                    "output" : 30
                },
                {
                    "input" : 27,
                    "interpolation" : "LINEAR",
                    "output" : 31
                },
                {
                    "input" : 27,
                    "interpolation" : "LINEAR",
                    "output" : 32
                },
                {
                    "input" : 27,
                    "interpolation" : "LINEAR",
                    "output" : 33
                }
            ]
        }
    ],
    "materials" : [
        {
            "doubleSided" : true,
            "name" : "palette",
            "pbrMetallicRoughness" : {
                "metallicFactor" : 0
            }
        },
        {
            "doubleSided" : true,
            "name" : "palette.002",
            "pbrMetallicRoughness" : {
                "metallicFactor" : 0
            }
        }
    ],
    "meshes" : [
        {
            "name" : "ObjObject",
            "primitives" : [
                {
                    "attributes" : {
                        "POSITION" : 0,
                        "NORMAL" : 1,
                        "TEXCOORD_0" : 2,
                        "JOINTS_0" : 3,
                        "WEIGHTS_0" : 4
                    },
                    "indices" : 5,
                    "material" : 0
                }
            ]
        },
        {
            "name" : "ObjObject.002",
            "primitives" : [
                {
                    "attributes" : {
                        "POSITION" : 7,
                        "NORMAL" : 8,
                        "TEXCOORD_0" : 9,
                        "COLOR_0" : 10,
                        "JOINTS_0" : 11,
                        "WEIGHTS_0" : 12
                    },
                    "indices" : 13,
                    "material" : 1
                }
            ]
        }
    ],
    "skins" : [
        {
            "inverseBindMatrices" : 6,
            "joints" : [
                1,
                0
            ],
            "name" : "Armature"
        }
    ],
    "accessors" : [
        {
            "bufferView" : 0,
            "componentType" : 5126,
            "count" : 1825,
            "max" : [
                0.4975000023841858,
                0.9374998807907104,
                0.49750012159347534
            ],
            "min" : [
                -0.4975000023841858,
                -2.8966928766749334e-07,
                -0.497499942779541
            ],
            "type" : "VEC3"
        },
        {
            "bufferView" : 1,
            "componentType" : 5126,
            "count" : 1825,
            "type" : "VEC3"
        },
        {
            "bufferView" : 2,
            "componentType" : 5126,
            "count" : 1825,
            "type" : "VEC2"
        },
        {
            "bufferView" : 3,
            "componentType" : 5121,
            "count" : 1825,
            "type" : "VEC4"
        },
        {
            "bufferView" : 4,
            "componentType" : 5126,
            "count" : 1825,
            "type" : "VEC4"
        },
        {
            "bufferView" : 5,
            "componentType" : 5123,
            "count" : 3642,
            "type" : "SCALAR"
        },
        {
            "bufferView" : 6,
            "componentType" : 5126,
            "count" : 2,
            "type" : "MAT4"
        },
        {
            "bufferView" : 7,
            "componentType" : 5126,
            "count" : 1141,
            "max" : [
                0.5,
                0.9999998807907104,
                0.5000001788139343
            ],
            "min" : [
                -0.5,
                0.4999997615814209,
                -0.4999998211860657
            ],
            "type" : "VEC3"
        },
        {
            "bufferView" : 8,
            "componentType" : 5126,
            "count" : 1141,
            "type" : "VEC3"
        },
        {
            "bufferView" : 9,
            "componentType" : 5126,
            "count" : 1141,
            "type" : "VEC2"
        },
        {
            "bufferView" : 10,
            "componentType" : 5123,
            "count" : 1141,
            "normalized" : true,
            "type" : "VEC4"
        },
        {
            "bufferView" : 11,
            "componentType" : 5121,
            "count" : 1141,
            "type" : "VEC4"
        },
        {
            "bufferView" : 12,
            "componentType" : 5126,
            "count" : 1141,
            "type" : "VEC4"
        },
        {
            "bufferView" : 13,
            "componentType" : 5123,
            "count" : 2232,
            "type" : "SCALAR"
        },
        {
            "bufferView" : 14,
            "componentType" : 5126,
            "count" : 17,
            "max" : [
                0.6666666666666666
            ],
            "min" : [
                0
            ],
            "type" : "SCALAR"
        },
        {
            "bufferView" : 15,
            "componentType" : 5126,
            "count" : 17,
            "type" : "VEC3"
        },
        {
            "bufferView" : 16,
            "componentType" : 5126,
            "count" : 17,
            "type" : "VEC4"
        },
        {
            "bufferView" : 17,
            "componentType" : 5126,
            "count" : 17,
            "type" : "VEC3"
        },
        {
            "bufferView" : 18,
            "componentType" : 5126,
            "count" : 17,
            "type" : "VEC3"
        },
        {
            "bufferView" : 19,
            "componentType" : 5126,
            "count" : 17,
            "type" : "VEC4"
        },
        {
            "bufferView" : 20,
            "componentType" : 5126,
            "count" : 17,
            "type" : "VEC3"
        },
        {
            "bufferView" : 21,
            "componentType" : 5126,
            "count" : 17,
            "type" : "VEC3"
        },
        {
            "bufferView" : 22,
            "componentType" : 5126,
            "count" : 17,
            "type" : "VEC4"
        },
        {
            "bufferView" : 23,
            "componentType" : 5126,
            "count" : 17,
            "type" : "VEC3"
        },
        {
            "bufferView" : 24,
            "componentType" : 5126,
            "count" : 17,
            "type" : "VEC3"
        },
        {
            "bufferView" : 25,
            "componentType" : 5126,
            "count" : 17,
            "type" : "VEC4"
        },
        {
            "bufferView" : 26,
            "componentType" : 5126,
            "count" : 17,
            "type" : "VEC3"
        },
        {
            "bufferView" : 27,
            "componentType" : 5126,
            "count" : 25,
            "max" : [
                1
            ],
            "min" : [
                0
            ],
            "type" : "SCALAR"
        },
        {
            "bufferView" : 28,
            "componentType" : 5126,
            "count" : 25,
            "type" : "VEC3"
        },
        {
            "bufferView" : 29,
            "componentType" : 5126,
            "count" : 25,
            "type" : "VEC4"
        },
        {
            "bufferView" : 30,
            "componentType" : 5126,
            "count" : 25,
            "type" : "VEC3"
        },
        {
            "bufferView" : 31,
            "componentType" : 5126,
            "count" : 25,
            "type" : "VEC3"
        },
        {
            "bufferView" : 32,
            "componentType" : 5126,
            "count" : 25,
            "type" : "VEC4"
        },
        {
            "bufferView" : 33,
            "componentType" : 5126,
            "count" : 25,
            "type" : "VEC3"
        }
    ],
    "bufferViews" : [
        {
            "buffer" : 0,
            "byteLength" : 21900,
            "byteOffset" : 0
        },
        {
            "buffer" : 0,
            "byteLength" : 21900,
            "byteOffset" : 21900
        },
        {
            "buffer" : 0,
            "byteLength" : 14600,
            "byteOffset" : 43800
        },
        {
            "buffer" : 0,
            "byteLength" : 7300,
            "byteOffset" : 58400
        },
        {
            "buffer" : 0,
            "byteLength" : 29200,
            "byteOffset" : 65700
        },
        {
            "buffer" : 0,
            "byteLength" : 7284,
            "byteOffset" : 94900
        },
        {
            "buffer" : 0,
            "byteLength" : 128,
            "byteOffset" : 102184
        },
        {
            "buffer" : 0,
            "byteLength" : 13692,
            "byteOffset" : 102312
        },
        {
            "buffer" : 0,
            "byteLength" : 13692,
            "byteOffset" : 116004
        },
        {
            "buffer" : 0,
            "byteLength" : 9128,
            "byteOffset" : 129696
        },
        {
            "buffer" : 0,
            "byteLength" : 9128,
            "byteOffset" : 138824
        },
        {
            "buffer" : 0,
            "byteLength" : 4564,
            "byteOffset" : 147952
        },
        {
            "buffer" : 0,
            "byteLength" : 18256,
            "byteOffset" : 152516
        },
        {
            "buffer" : 0,
            "byteLength" : 4464,
            "byteOffset" : 170772
        },
        {
            "buffer" : 0,
            "byteLength" : 68,
            "byteOffset" : 175236
        },
        {
            "buffer" : 0,
            "byteLength" : 204,
            "byteOffset" : 175304
        },
        {
            "buffer" : 0,
            "byteLength" : 272,
            "byteOffset" : 175508
        },
        {
            "buffer" : 0,
            "byteLength" : 204,
            "byteOffset" : 175780
        },
        {
            "buffer" : 0,
            "byteLength" : 204,
            "byteOffset" : 175984
        },
        {
            "buffer" : 0,
            "byteLength" : 272,
            "byteOffset" : 176188
        },
        {
            "buffer" : 0,
            "byteLength" : 204,
            "byteOffset" : 176460
        },
        {
            "buffer" : 0,
            "byteLength" : 204,
            "byteOffset" : 176664
        },
        {
            "buffer" : 0,
            "byteLength" : 272,
            "byteOffset" : 176868
        },
        {
            "buffer" : 0,
            "byteLength" : 204,
            "byteOffset" : 177140
        },
        {
            "buffer" : 0,
            "byteLength" : 204,
            "byteOffset" : 177344
        },
        {
            "buffer" : 0,
            "byteLength" : 272,
            "byteOffset" : 177548
        },
        {
            "buffer" : 0,
            "byteLength" : 204,
            "byteOffset" : 177820
        },
        {
            "buffer" : 0,
            "byteLength" : 100,
            "byteOffset" : 178024
        },
        {
            "buffer" : 0,
            "byteLength" : 300,
            "byteOffset" : 178124
        },
        {
            "buffer" : 0,
            "byteLength" : 400,
            "byteOffset" : 178424
        },
        {
            "buffer" : 0,
            "byteLength" : 300,
            "byteOffset" : 178824
        },
        {
            "buffer" : 0,
            "byteLength" : 300,
            "byteOffset" : 179124
        },
        {
            "buffer" : 0,
            "byteLength" : 400,
            "byteOffset" : 179424
        },
        {
            "buffer" : 0,
            "byteLength" : 300,
            "byteOffset" : 179824
        }
    ],
    "buffers" : [
        {
            "byteLength" : 180124,
            "uri" : "data:application/octet-stream;base64,"
        }
    ]
}
